<?xml version="1.0" encoding="UTF-8"?>
<svg width="76.2269081px" height="76.2269081px" viewBox="0 0 76.2269081 76.2269081" version="1.1" xmlns="http://www.w3.org/2000/svg" xmlns:xlink="http://www.w3.org/1999/xlink">
    <title>Star 1</title>
    <g id="Page-1" stroke="none" stroke-width="1" fill="none" fill-rule="evenodd">
        <g id="Star-1" fill="#000000" fill-rule="nonzero">
            <path d="M35.7453581,1.15820813 C36.9464581,-0.386068875 39.2804581,-0.386069875 40.4815581,1.15820813 L44.6908581,6.57030813 C45.5155581,7.63062813 46.9444581,8.01351813 48.1888581,7.50759813 L54.5402581,4.92522813 C56.3525581,4.18838813 58.3738581,5.35538813 58.6418581,7.29330813 L59.5812581,14.0849581 C59.7652581,15.4155581 60.8113581,16.4616581 62.1419581,16.6456581 L68.9336581,17.5850581 C70.8715581,17.8530581 72.0385581,19.8743581 71.3016581,21.6866581 L68.7193581,28.0380581 C68.2133581,29.2824581 68.5962581,30.7113581 69.6566581,31.5360581 L75.0687581,35.7453581 C76.6129581,36.9464581 76.6129581,39.2804581 75.0687581,40.4815581 L69.6566581,44.6908581 C68.5962581,45.5155581 68.2133581,46.9444581 68.7193581,48.1888581 L71.3016581,54.5402581 C72.0385581,56.3525581 70.8715581,58.3738581 68.9336581,58.6418581 L62.1419581,59.5812581 C60.8113581,59.7652581 59.7652581,60.8113581 59.5812581,62.1419581 L58.6418581,68.9336581 C58.3738581,70.8715581 56.3525581,72.0385581 54.5402581,71.3016581 L48.1888581,68.7193581 C46.9444581,68.2133581 45.5155581,68.5962581 44.6908581,69.6566581 L40.4815581,75.0687581 C39.2804581,76.6129581 36.9464581,76.6129581 35.7453581,75.0687581 L31.5360581,69.6566581 C30.7113581,68.5962581 29.2824581,68.2133581 28.0380581,68.7193581 L21.6866581,71.3016581 C19.8743581,72.0385581 17.8530581,70.8715581 17.5850581,68.9336581 L16.6456581,62.1419581 C16.4616581,60.8113581 15.4155581,59.7652581 14.0849581,59.5812581 L7.29330813,58.6418581 C5.35538813,58.3738581 4.18838813,56.3525581 4.92522813,54.5402581 L7.50759813,48.1888581 C8.01351813,46.9444581 7.63062813,45.5155581 6.57030813,44.6908581 L1.15820813,40.4815581 C-0.386068875,39.2804581 -0.386069875,36.9464581 1.15820813,35.7453581 L6.57030813,31.5360581 C7.63062813,30.7113581 8.01351813,29.2824581 7.50759813,28.0380581 L4.92522813,21.6866581 C4.18838813,19.8743581 5.35538813,17.8530581 7.29330813,17.5850581 L14.0849581,16.6456581 C15.4155581,16.4616581 16.4616581,15.4155581 16.6456581,14.0849581 L17.5850581,7.29330813 C17.8530581,5.35538813 19.8743581,4.18838813 21.6866581,4.92522813 L28.0380581,7.50759813 C29.2824581,8.01351813 30.7113581,7.63062813 31.5360581,6.57030813 L35.7453581,1.15820813 Z" id="Path"></path>
        </g>
    </g>
</svg>