<svg width="20" height="22" viewBox="0 0 20 22" fill="none" xmlns="http://www.w3.org/2000/svg">
<path fill-rule="evenodd" clip-rule="evenodd" d="M7.30491 1.64818C6.01887 2.30298 4.96685 2.85695 4.96685 2.8797C4.96725 2.93777 8.05309 4.4655 8.16266 4.46157C8.21244 4.46 8.57408 4.29719 8.96583 4.10024L9.67829 3.74204L10.4566 4.13319L11.2349 4.52435L12.5092 3.96449C14.4295 3.12098 14.629 3.02839 14.598 2.9974C14.5567 2.9562 13.8679 2.59448 11.9991 1.63288C11.096 1.16797 10.2194 0.712471 10.0512 0.620273C9.88299 0.527684 9.72244 0.453533 9.69434 0.455103C9.66625 0.456672 8.59094 0.993379 7.30491 1.64818ZM1.66467 4.50316L0.326052 5.17875V8.14516C0.326052 9.77646 0.343713 11.1116 0.365387 11.1116C0.387062 11.1116 1.04533 10.8326 1.82883 10.4913L3.25334 9.87102V6.74415L3.94934 7.1149C4.48559 7.40012 5.02264 7.68496 5.55969 7.96939L6.47364 8.45314L6.88024 8.27345C7.13552 8.16046 7.39 8.04668 7.64408 7.93134C7.84035 7.84189 8.32241 7.62964 8.71497 7.45976C9.10752 7.28949 9.47117 7.11843 9.52255 7.07959C9.59119 7.0278 8.75631 6.57702 6.43471 5.4114C4.68468 4.53298 3.19675 3.81698 3.12811 3.82051C3.05947 3.82404 2.4008 4.13084 1.66467 4.50277V4.50316ZM14.8397 4.69305C13.9281 5.09519 13.1812 5.44044 13.1804 5.46045C13.1796 5.48006 13.6765 5.76882 14.2846 6.1023C14.8927 6.43578 15.3904 6.7261 15.3904 6.74807C15.3904 6.77004 14.8521 7.02466 14.1947 7.3146C13.5368 7.60414 11.8743 8.33818 10.4999 8.94551L5.89485 10.9801C4.73645 11.4921 3.69246 11.9535 3.57445 12.0057C1.20829 13.0528 0.558052 13.3431 0.468543 13.393C0.378633 13.4432 0.358564 13.7347 0.342509 15.1989L0.323242 16.9447L1.52017 17.5411L2.71709 18.1374L4.37722 17.4053C5.29036 17.0028 6.03734 16.652 6.03734 16.6261C6.03734 16.6003 5.86876 16.4931 5.66245 16.3872C5.45613 16.2817 5.03067 16.0475 4.71638 15.8674C4.4021 15.6869 4.08902 15.5217 4.02039 15.4998C3.95175 15.4778 3.89636 15.4397 3.89756 15.4146C3.89877 15.3899 4.62969 15.0506 5.52196 14.6606C7.25473 13.9034 8.58091 13.3196 11.4279 12.061C12.7011 11.4984 13.9743 10.9362 15.2475 10.3744C16.3665 9.88082 17.6678 9.3041 18.1391 9.09303L18.9956 8.70933L19.0145 6.94345L19.0337 5.17758L17.8196 4.56829C17.1516 4.23324 16.5809 3.96018 16.5508 3.96096C16.5211 3.96175 15.7504 4.2917 14.8389 4.69423L14.8397 4.69305ZM18.6709 11.0637C18.4919 11.1492 18.1387 11.3089 17.8854 11.4191C17.6325 11.529 17.1521 11.7409 16.8185 11.8899L16.2116 12.1607L16.198 13.7111C16.1903 14.5637 16.1582 15.2577 16.1265 15.253C16.0547 15.2424 14.9171 14.6723 13.774 14.0737C12.9488 13.6417 12.897 13.6244 12.7031 13.7182C12.5911 13.7723 11.9208 14.0662 11.214 14.371C10.5071 14.6759 9.90587 14.945 9.87737 14.9693C9.84928 14.9937 11.2718 15.7473 13.0387 16.6442L16.2513 18.2747L17.6237 17.5807C18.3783 17.1989 19.0201 16.851 19.0498 16.8074C19.1164 16.7089 19.1108 10.8954 19.0442 10.9032C19.0177 10.9064 18.8499 10.979 18.6709 11.0641V11.0637ZM11.0711 17.8875C10.8331 17.9875 10.595 18.0876 10.357 18.188C9.63855 18.4917 9.77944 18.5019 8.92449 18.086C8.35533 17.809 8.10968 17.7235 8.00331 17.7651C7.92344 17.7961 7.23587 18.0986 6.47525 18.4371C5.71463 18.7757 5.06599 19.0523 5.03388 19.0523C4.71478 19.0523 5.24541 19.3623 7.29246 20.3717L9.69354 21.5554L10.7038 21.0681C11.2593 20.8001 12.38 20.263 13.194 19.875C14.008 19.487 14.6639 19.159 14.6518 19.1469C14.6394 19.1347 13.9574 18.7922 13.1358 18.3861L11.6423 17.6478L11.0711 17.8879V17.8875Z" fill="#6EDEFF"/>
</svg>
