<svg width="170" height="55" viewBox="0 0 170 55" fill="none" xmlns="http://www.w3.org/2000/svg">
<rect width="170" height="55" rx="10" fill="white" fill-opacity="0.4"/>
<path d="M55.5506 35.6201H50.1106L48.8042 39.5001H46.5L51.6527 25.1445H54.0467L59.1993 39.5001H56.8558L55.5506 35.6201ZM50.674 33.8297H54.9861L52.8604 27.5321H52.8009L50.674 33.8297Z" fill="#2D2D2D"/>
<path d="M70.3249 34.2674C70.3249 37.5198 68.5942 39.6093 65.9825 39.6093C65.3209 39.6441 64.663 39.4908 64.084 39.167C63.505 38.8432 63.0283 38.3619 62.7086 37.7782H62.6592V42.9621H60.5234V29.0333H62.5908V30.7741H62.6301C62.9645 30.1932 63.4492 29.7144 64.0326 29.3886C64.616 29.0628 65.2763 28.9022 65.9433 28.9238C68.5841 28.9238 70.3249 31.0235 70.3249 34.2674ZM68.1296 34.2674C68.1296 32.1479 67.0409 30.7549 65.3798 30.7549C63.7479 30.7549 62.6503 32.1773 62.6503 34.2674C62.6503 36.3762 63.7479 37.7884 65.3798 37.7884C67.0409 37.7884 68.1296 36.4056 68.1296 34.2674Z" fill="#2D2D2D"/>
<path d="M81.7781 34.2674C81.7781 37.5198 80.0474 39.6093 77.4357 39.6093C76.7741 39.6441 76.1161 39.4908 75.5371 39.167C74.9581 38.8432 74.4815 38.3619 74.1618 37.7782H74.1124V42.9621H71.9766V29.0333H74.0439V30.7741H74.0832C74.4176 30.1932 74.9023 29.7144 75.4857 29.3886C76.0691 29.0628 76.7294 28.9022 77.3964 28.9238C80.0373 28.9238 81.7781 31.0235 81.7781 34.2674ZM79.5827 34.2674C79.5827 32.1479 78.4941 30.7549 76.833 30.7549C75.2011 30.7549 74.1034 32.1773 74.1034 34.2674C74.1034 36.3762 75.2011 37.7884 76.833 37.7884C78.4941 37.7884 79.5827 36.4056 79.5827 34.2674Z" fill="#2D2D2D"/>
<path d="M89.3504 35.4996C89.5087 36.9231 90.8836 37.8578 92.7624 37.8578C94.5626 37.8578 95.8578 36.923 95.8578 35.6395C95.8578 34.5253 95.0766 33.8581 93.227 33.4009L91.3774 32.9522C88.7567 32.3155 87.5401 31.0827 87.5401 29.0823C87.5401 26.6055 89.686 24.9043 92.7332 24.9043C95.7489 24.9043 97.8163 26.6055 97.8859 29.0823H95.7298C95.6008 27.6498 94.4234 26.785 92.7029 26.785C90.9823 26.785 89.8049 27.6599 89.8049 28.9333C89.8049 29.9482 90.5569 30.5454 92.3965 31.0025L93.9689 31.3909C96.8971 32.0874 98.1137 33.2705 98.1137 35.3708C98.1137 38.0564 95.9868 39.7385 92.6041 39.7385C89.4391 39.7385 87.3021 38.0959 87.1641 35.4995L89.3504 35.4996Z" fill="#2D2D2D"/>
<path d="M102.721 26.5566V29.0334H104.7V30.7347H102.721V36.505C102.721 37.4013 103.118 37.819 103.987 37.819C104.222 37.8149 104.457 37.7983 104.69 37.7693V39.4604C104.299 39.5339 103.901 39.5672 103.504 39.5597C101.397 39.5597 100.575 38.7639 100.575 36.7341V30.7346H99.0625V29.0334H100.575V26.5566H102.721Z" fill="#2D2D2D"/>
<path d="M105.844 34.2671C105.844 30.9736 107.772 28.9043 110.779 28.9043C113.796 28.9043 115.715 30.9735 115.715 34.2671C115.715 37.5691 113.806 39.6293 110.779 39.6293C107.753 39.6293 105.844 37.5691 105.844 34.2671ZM113.539 34.2671C113.539 32.0076 112.509 30.6744 110.779 30.6744C109.048 30.6744 108.019 32.0178 108.019 34.2671C108.019 36.535 109.048 37.8581 110.779 37.8581C112.509 37.8581 113.539 36.535 113.539 34.2671Z" fill="#2D2D2D"/>
<path d="M117.477 29.0332H119.514V30.8146H119.563C119.701 30.2582 120.025 29.7665 120.481 29.4222C120.936 29.0778 121.496 28.9018 122.066 28.9237C122.312 28.9228 122.557 28.9497 122.798 29.0038V31.0133C122.487 30.9178 122.163 30.8739 121.838 30.8835C121.528 30.8708 121.218 30.9258 120.931 31.0448C120.644 31.1637 120.386 31.3437 120.175 31.5725C119.963 31.8012 119.803 32.0733 119.706 32.37C119.609 32.6667 119.577 32.981 119.612 33.2914V39.4997H117.477V29.0332Z" fill="#2D2D2D"/>
<path d="M132.644 36.4255C132.357 38.3255 130.517 39.6293 128.164 39.6293C125.137 39.6293 123.258 37.5894 123.258 34.3168C123.258 31.0334 125.147 28.9043 128.074 28.9043C130.953 28.9043 132.763 30.8934 132.763 34.0673V34.8033H125.414V34.9331C125.38 35.3183 125.428 35.7063 125.555 36.0714C125.681 36.4366 125.884 36.7704 126.148 37.0508C126.413 37.3311 126.734 37.5517 127.09 37.6977C127.446 37.8437 127.829 37.9118 128.213 37.8976C128.718 37.9452 129.224 37.8276 129.657 37.5624C130.09 37.2971 130.426 36.8984 130.616 36.4255L132.644 36.4255ZM125.424 33.3013H130.626C130.645 32.955 130.593 32.6084 130.473 32.2833C130.352 31.9583 130.167 31.6617 129.927 31.4123C129.687 31.1629 129.399 30.966 129.08 30.8339C128.761 30.7019 128.419 30.6376 128.074 30.645C127.726 30.643 127.381 30.7102 127.059 30.8428C126.738 30.9755 126.445 31.1709 126.199 31.4179C125.952 31.6648 125.757 31.9584 125.624 32.2817C125.491 32.6049 125.423 32.9515 125.424 33.3013Z" fill="#2D2D2D"/>
<path d="M31.8214 26.5501C31.8377 25.2852 32.1721 24.045 32.7936 22.9449C33.4152 21.8447 34.3036 20.9204 35.3763 20.2579C34.6948 19.2802 33.7959 18.4756 32.7507 17.908C31.7056 17.3404 30.5432 17.0254 29.3557 16.9881C26.8226 16.721 24.3669 18.5109 23.076 18.5109C21.7602 18.5109 19.7728 17.0146 17.6326 17.0589C16.2484 17.1038 14.8993 17.5082 13.7168 18.2327C12.5343 18.9571 11.5588 19.9769 10.8853 21.1928C7.96801 26.267 10.1441 33.7246 12.9387 37.8263C14.3369 39.8348 15.971 42.0783 18.1092 41.9987C20.2016 41.9115 20.983 40.6583 23.5086 40.6583C26.0109 40.6583 26.744 41.9987 28.9256 41.9481C31.1708 41.9115 32.5854 39.9307 33.9345 37.9032C34.9392 36.4721 35.7122 34.8904 36.2251 33.2167C34.9207 32.6625 33.8075 31.7348 33.0244 30.5493C32.2413 29.3637 31.823 27.9729 31.8214 26.5501Z" fill="#2D2D2D"/>
<path d="M27.702 14.2898C28.9262 12.8135 29.5293 10.9159 29.3833 9C27.513 9.19734 25.7854 10.0953 24.5447 11.515C23.9381 12.2086 23.4735 13.0155 23.1775 13.8895C22.8814 14.7636 22.7598 15.6877 22.8195 16.609C23.7549 16.6187 24.6804 16.415 25.5261 16.0132C26.3719 15.6115 27.1158 15.0222 27.702 14.2898Z" fill="#2D2D2D"/>
<path d="M50.1519 21.188C49.0741 21.188 48.2218 20.8245 47.5952 20.0977C46.9686 19.3708 46.6553 18.3807 46.6553 17.1274C46.6553 15.8706 46.9668 14.8787 47.5898 14.1519C48.2165 13.425 49.0687 13.0615 50.1465 13.0615C50.9987 13.0615 51.7238 13.3122 52.3218 13.8135C52.9233 14.3112 53.2725 14.9557 53.3691 15.7471H52.1714C52.0568 15.2708 51.8169 14.8913 51.4517 14.6084C51.09 14.3255 50.6549 14.1841 50.1465 14.1841C49.4518 14.1841 48.9004 14.4491 48.4922 14.979C48.0876 15.5054 47.8853 16.2215 47.8853 17.1274C47.8853 18.0298 48.0876 18.7459 48.4922 19.2759C48.9004 19.8022 49.4536 20.0654 50.1519 20.0654C50.6639 20.0654 51.1007 19.9365 51.4624 19.6787C51.8276 19.4209 52.064 19.0736 52.1714 18.6367H53.3691C53.2617 19.403 52.9144 20.0207 52.3271 20.4897C51.7399 20.9552 51.0148 21.188 50.1519 21.188ZM58.72 21.1128C57.8607 21.1128 57.1857 20.8424 56.6951 20.3018C56.2046 19.7611 55.9593 19.0181 55.9593 18.0728C55.9593 17.131 56.2046 16.3898 56.6951 15.8491C57.1893 15.3084 57.8642 15.0381 58.72 15.0381C59.5723 15.0381 60.2436 15.3084 60.7342 15.8491C61.2283 16.3898 61.4754 17.131 61.4754 18.0728C61.4754 19.0181 61.2301 19.7611 60.7396 20.3018C60.249 20.8424 59.5758 21.1128 58.72 21.1128ZM58.72 20.0869C59.2178 20.0869 59.6027 19.9115 59.8748 19.5605C60.1505 19.2061 60.2884 18.7101 60.2884 18.0728C60.2884 17.439 60.1505 16.9466 59.8748 16.5957C59.6027 16.2412 59.2178 16.064 58.72 16.064C58.2187 16.064 57.832 16.2394 57.5599 16.5903C57.2877 16.9412 57.1517 17.4354 57.1517 18.0728C57.1517 18.7137 57.2877 19.2096 57.5599 19.5605C57.832 19.9115 58.2187 20.0869 58.72 20.0869ZM64.2965 21V15.1509H65.4083V16.0908H65.4943C65.6232 15.7578 65.8291 15.5 66.112 15.3174C66.3984 15.1312 66.735 15.0381 67.1217 15.0381C67.512 15.0381 67.845 15.1312 68.1207 15.3174C68.3965 15.5036 68.6006 15.7614 68.733 16.0908H68.8244C68.9747 15.7686 69.2075 15.5125 69.5226 15.3228C69.8413 15.133 70.2011 15.0381 70.6022 15.0381C71.193 15.0381 71.6513 15.2082 71.9772 15.5483C72.3066 15.8885 72.4713 16.363 72.4713 16.9717V21H71.3165V17.2725C71.3165 16.4883 70.9388 16.0962 70.1832 16.0962C69.8144 16.0962 69.5154 16.2126 69.2863 16.4453C69.0607 16.6781 68.9479 16.9699 68.9479 17.3208V21H67.8146V17.1597C67.8146 16.8302 67.7125 16.5706 67.5084 16.3809C67.3043 16.1911 67.0304 16.0962 66.6867 16.0962C66.3357 16.0962 66.0421 16.2233 65.8058 16.4775C65.5695 16.7318 65.4513 17.0469 65.4513 17.4229V21H64.2965ZM75.5449 21V15.1509H76.6943V21H75.5449ZM76.6513 13.9263C76.5117 14.0588 76.3344 14.125 76.1196 14.125C75.9047 14.125 75.7257 14.0588 75.5825 13.9263C75.4428 13.7902 75.373 13.6219 75.373 13.4214C75.373 13.2209 75.4428 13.0526 75.5825 12.9165C75.7257 12.7804 75.9047 12.7124 76.1196 12.7124C76.3344 12.7124 76.5117 12.7804 76.6513 12.9165C76.7946 13.0526 76.8662 13.2209 76.8662 13.4214C76.8662 13.6219 76.7946 13.7902 76.6513 13.9263ZM79.8216 21V15.1509H80.9334V16.0801H81.0193C81.3237 15.3854 81.9055 15.0381 82.7649 15.0381C83.4166 15.0381 83.9161 15.2261 84.2635 15.6021C84.6144 15.978 84.7898 16.5151 84.7898 17.2134V21H83.635V17.5034C83.635 16.5653 83.2143 16.0962 82.3728 16.0962C81.9467 16.0962 81.6066 16.2305 81.3523 16.499C81.1017 16.764 80.9763 17.1239 80.9763 17.5786V21H79.8216ZM89.1524 19.4048C89.4246 19.745 89.8059 19.915 90.2965 19.915C90.787 19.915 91.1738 19.7432 91.4566 19.3994C91.7395 19.0557 91.881 18.5902 91.881 18.0029C91.881 17.4193 91.7395 16.9556 91.4566 16.6118C91.1738 16.2645 90.787 16.0908 90.2965 16.0908C89.8059 16.0908 89.4246 16.2627 89.1524 16.6064C88.8803 16.9466 88.7442 17.4121 88.7442 18.0029C88.7442 18.5938 88.8803 19.061 89.1524 19.4048ZM90.3126 23.2344C89.5893 23.2344 89.0021 23.084 88.5509 22.7832C88.0997 22.486 87.8437 22.0868 87.7828 21.5854H88.9645C89.0146 21.8003 89.1578 21.9704 89.3941 22.0957C89.6341 22.221 89.9456 22.2837 90.3287 22.2837C90.8085 22.2837 91.1827 22.1745 91.4513 21.9561C91.7234 21.7412 91.8595 21.4404 91.8595 21.0537V19.9312H91.7735C91.5981 20.2463 91.3546 20.4897 91.0431 20.6616C90.7315 20.8299 90.3735 20.9141 89.9688 20.9141C89.2276 20.9141 88.6386 20.6509 88.2018 20.1245C87.7685 19.5946 87.5519 18.8892 87.5519 18.0083C87.5519 17.1131 87.7703 16.397 88.2071 15.8599C88.644 15.3228 89.2348 15.0542 89.9796 15.0542C90.3806 15.0542 90.7459 15.1473 91.0753 15.3335C91.4047 15.5161 91.6518 15.7668 91.8165 16.0854H91.9078V15.1509H93.0143V21.0483C93.0143 21.7179 92.7708 22.2497 92.2838 22.6436C91.7968 23.0374 91.1397 23.2344 90.3126 23.2344ZM100.424 16.8052C100.424 16.2896 100.637 15.867 101.063 15.5376C101.489 15.2046 102.033 15.0381 102.696 15.0381C103.354 15.0381 103.886 15.1831 104.291 15.4731C104.695 15.7632 104.926 16.166 104.984 16.6816H103.877C103.823 16.4632 103.693 16.2913 103.485 16.166C103.281 16.0407 103.018 15.978 102.696 15.978C102.37 15.978 102.099 16.0496 101.885 16.1929C101.67 16.3325 101.562 16.5151 101.562 16.7407C101.562 16.9162 101.637 17.0612 101.788 17.1758C101.938 17.2904 102.173 17.3835 102.491 17.4551L103.464 17.6807C104.026 17.8096 104.438 18.0011 104.699 18.2554C104.964 18.5096 105.096 18.8498 105.096 19.2759C105.096 19.8201 104.869 20.2624 104.414 20.6025C103.96 20.9427 103.379 21.1128 102.674 21.1128C101.979 21.1128 101.417 20.966 100.988 20.6724C100.561 20.3752 100.323 19.967 100.273 19.4478H101.428C101.503 19.6769 101.648 19.856 101.863 19.9849C102.078 20.1138 102.357 20.1782 102.701 20.1782C103.063 20.1782 103.358 20.1048 103.587 19.958C103.816 19.8112 103.931 19.6214 103.931 19.3887C103.931 19.0485 103.644 18.8104 103.072 18.6743L102.051 18.438C101.492 18.3055 101.081 18.1086 100.816 17.8472C100.554 17.5858 100.424 17.2384 100.424 16.8052ZM110.388 21.1128C109.529 21.1128 108.854 20.8424 108.363 20.3018C107.873 19.7611 107.627 19.0181 107.627 18.0728C107.627 17.131 107.873 16.3898 108.363 15.8491C108.857 15.3084 109.532 15.0381 110.388 15.0381C111.24 15.0381 111.912 15.3084 112.402 15.8491C112.897 16.3898 113.144 17.131 113.144 18.0728C113.144 19.0181 112.898 19.7611 112.408 20.3018C111.917 20.8424 111.244 21.1128 110.388 21.1128ZM110.388 20.0869C110.886 20.0869 111.271 19.9115 111.543 19.5605C111.819 19.2061 111.957 18.7101 111.957 18.0728C111.957 17.439 111.819 16.9466 111.543 16.5957C111.271 16.2412 110.886 16.064 110.388 16.064C109.887 16.064 109.5 16.2394 109.228 16.5903C108.956 16.9412 108.82 17.4354 108.82 18.0728C108.82 18.7137 108.956 19.2096 109.228 19.5605C109.5 19.9115 109.887 20.0869 110.388 20.0869ZM118.435 21.1128C117.576 21.1128 116.901 20.8424 116.411 20.3018C115.92 19.7611 115.675 19.0181 115.675 18.0728C115.675 17.131 115.92 16.3898 116.411 15.8491C116.905 15.3084 117.58 15.0381 118.435 15.0381C119.288 15.0381 119.959 15.3084 120.45 15.8491C120.944 16.3898 121.191 17.131 121.191 18.0728C121.191 19.0181 120.946 19.7611 120.455 20.3018C119.964 20.8424 119.291 21.1128 118.435 21.1128ZM118.435 20.0869C118.933 20.0869 119.318 19.9115 119.59 19.5605C119.866 19.2061 120.004 18.7101 120.004 18.0728C120.004 17.439 119.866 16.9466 119.59 16.5957C119.318 16.2412 118.933 16.064 118.435 16.064C117.934 16.064 117.547 16.2394 117.275 16.5903C117.003 16.9412 116.867 17.4354 116.867 18.0728C116.867 18.7137 117.003 19.2096 117.275 19.5605C117.547 19.9115 117.934 20.0869 118.435 20.0869ZM124.012 21V15.1509H125.124V16.0801H125.21C125.514 15.3854 126.096 15.0381 126.955 15.0381C127.607 15.0381 128.106 15.2261 128.454 15.6021C128.805 15.978 128.98 16.5151 128.98 17.2134V21H127.825V17.5034C127.825 16.5653 127.405 16.0962 126.563 16.0962C126.137 16.0962 125.797 16.2305 125.543 16.499C125.292 16.764 125.167 17.1239 125.167 17.5786V21H124.012Z" fill="#2D2D2D"/>
</svg>
