<svg aria-hidden="true"  style="position:absolute;width:0;height:0" width="24" height="24" xmlns="http://www.w3.org/2000/svg" overflow="hidden">
<defs>
<symbol id="Site" viewBox="0 0 22 23"><path d="M11.47 22.0009C8.60996 22.1209 5.92996 21.1709 3.65996 19.1609C1.55996 17.3009 0.359963 14.9209 0.0699629 12.1309C-0.260037 8.98091 0.649963 6.17091 2.71996 3.78091C4.64996 1.56091 7.12996 0.270912 10.09 0.0409115C13.1 -0.189088 15.81 0.650911 18.12 2.62091C20.32 4.49091 21.6 6.89091 21.92 9.75091C22.27 12.8609 21.42 15.6509 19.41 18.0509C17.39 20.4709 14.77 21.7009 11.47 22.0009ZM13.69 20.2209C16.43 19.4209 18.37 17.6709 19.69 15.1609C19.51 15.1409 19.38 15.1109 19.25 15.1109C18.08 15.1109 16.91 15.1109 15.75 15.1109C15.62 15.1109 15.43 15.0609 15.37 15.3309C15.17 16.3009 14.95 17.2609 14.61 18.1809C14.36 18.8509 14.11 19.5209 13.71 20.1209C13.69 20.1409 13.71 20.1909 13.71 20.2209C13.71 20.2209 13.69 20.2209 13.68 20.2209V20.2409C13.68 20.2409 13.69 20.2309 13.7 20.2209H13.69ZM13.93 6.89091C13.93 6.89091 13.95 6.87091 13.96 6.86091C13.95 6.77091 13.95 6.68091 13.93 6.59091C13.75 5.88091 13.57 5.17091 13.38 4.46091C13.2 3.82091 12.92 3.22091 12.58 2.65091C12.37 2.29091 12.12 1.94091 11.78 1.69091C11.35 1.38091 10.89 1.25091 10.41 1.57091C10.24 1.68091 10.08 1.82091 9.93996 1.98091C9.32996 2.64091 8.96996 3.44091 8.67996 4.27091C8.47996 4.83091 8.33996 5.41091 8.18996 5.98091C8.10996 6.27091 8.06996 6.57091 8.00996 6.89091H8.23996C8.86996 6.89091 9.49996 6.89091 10.13 6.89091C11.4 6.89091 12.66 6.89091 13.93 6.89091ZM14.15 8.23091C12.07 8.23091 10.02 8.23091 7.96996 8.23091C7.87996 8.23091 7.82996 8.24091 7.82996 8.35091C7.82996 8.47091 7.77996 8.59091 7.76996 8.72091C7.72996 9.23091 7.67996 9.73091 7.66996 10.2409C7.65996 10.8109 7.66996 11.3809 7.69996 11.9509C7.71996 12.4709 7.76996 13.0009 7.79996 13.5209C7.80996 13.6609 7.83996 13.7609 8.03996 13.7609C8.87996 13.7409 9.71996 13.7609 10.56 13.7609H14.16C14.41 11.9209 14.38 10.0909 14.16 8.25091L14.15 8.23091ZM6.40996 8.23091C5.66996 8.23091 4.92996 8.23091 4.19996 8.23091C3.44996 8.23091 2.68996 8.23091 1.93996 8.23091C1.87996 8.23091 1.78996 8.27091 1.76996 8.31091C1.55996 8.77091 1.49996 9.27091 1.44996 9.77091C1.42996 10.0409 1.42996 10.3109 1.42996 10.5709C1.42996 10.9509 1.40996 11.3209 1.41996 11.7009C1.41996 11.9509 1.46996 12.2009 1.48996 12.4609C1.51996 12.8509 1.59996 13.2309 1.73996 13.6009C1.78996 13.7209 1.83996 13.7409 1.94996 13.7409C3.38996 13.7409 4.82996 13.7409 6.27996 13.7409C6.32996 13.7409 6.37996 13.7409 6.41996 13.7409C6.28996 11.9009 6.29996 10.0809 6.41996 8.24091L6.40996 8.23091ZM15.56 13.7409H19.78C20.22 13.7409 20.22 13.7409 20.34 13.3309C20.53 12.6809 20.55 12.0109 20.56 11.3509C20.57 10.8509 20.52 10.3509 20.51 9.85091C20.51 9.35091 20.4 8.87091 20.26 8.39091C20.23 8.29091 20.18 8.23091 20.04 8.23091C18.6 8.23091 17.17 8.23091 15.73 8.23091H15.55C15.7 10.0709 15.7 11.9009 15.55 13.7409H15.56ZM8.03996 15.1009C8.03996 15.1609 8.03996 15.2209 8.03996 15.2809C8.08996 15.5509 8.14996 15.8109 8.20996 16.0809C8.41996 17.0209 8.68996 17.9309 9.11996 18.7909C9.40996 19.3509 9.72996 19.8909 10.23 20.3009C10.78 20.7409 11.3 20.6709 11.8 20.2609C12.22 19.9209 12.5 19.4709 12.76 19.0009C13.13 18.3209 13.38 17.6009 13.57 16.8509C13.72 16.2809 13.85 15.7009 13.99 15.1109H8.02996L8.03996 15.1009ZM13.65 1.74091C13.67 1.79091 13.68 1.83091 13.7 1.86091C14.11 2.46091 14.37 3.13091 14.61 3.81091C14.93 4.71091 15.17 5.63091 15.35 6.57091C15.37 6.67091 15.37 6.83091 15.53 6.85091C15.68 6.87091 15.83 6.89091 15.98 6.89091C16.87 6.89091 17.77 6.89091 18.66 6.89091C18.99 6.89091 19.33 6.86091 19.66 6.85091C19.63 6.52091 18.89 5.36091 18.09 4.48091C16.88 3.15091 15.4 2.25091 13.66 1.73091L13.65 1.74091ZM8.34996 1.74091C5.62996 2.61091 3.60996 4.28091 2.30996 6.86091H6.59996C6.94996 5.05091 7.41996 3.32091 8.34996 1.74091ZM2.29996 15.1109C2.49996 15.4609 2.64996 15.7509 2.82996 16.0209C3.33996 16.8309 3.90996 17.5809 4.65996 18.1909C5.08996 18.5409 5.52996 18.9009 6.00996 19.1809C6.60996 19.5309 7.24996 19.8009 7.87996 20.1009C7.99996 20.1609 8.13996 20.1709 8.27996 20.2009C8.28996 20.1809 8.29996 20.1709 8.30996 20.1509C7.37996 18.6009 6.93996 16.8809 6.59996 15.1209C5.16996 15.1009 3.75996 15.0809 2.29996 15.1009V15.1109Z" /></symbol>
<symbol id="Email" viewBox="0 0 29 29"><path d="M7.046 3.322c4.96-.43 9.948-.43 14.907 0l2.39.207a4.57 4.57 0 0 1 3.659 2.435.37.37 0 0 1-.144.485l-9.914 6.113a6.747 6.747 0 0 1-6.96.072l-9.98-5.875a.371.371 0 0 1-.163-.462 4.57 4.57 0 0 1 3.816-2.768l2.39-.207Z"/><path d="M.833 9.404a.392.392 0 0 0-.59.296 47.65 47.65 0 0 0 .29 11.913 4.562 4.562 0 0 0 4.124 3.858l2.39.207c4.96.43 9.947.43 14.906 0l2.39-.207a4.562 4.562 0 0 0 4.123-3.858c.613-4.061.698-8.182.255-12.26a.392.392 0 0 0-.597-.288l-8.93 5.507a9.128 9.128 0 0 1-9.418.097L.833 9.404Z"/></symbol>
<symbol id="Telegram" viewBox="0 0 29 29"><path d="M27.043 2.164 1.354 12.347c-1.753.723-1.743 1.729-.322 2.177l6.596 2.115 15.26-9.897c.72-.45 1.38-.208.838.286l-12.363 11.47h-.003l.003.001-.455 6.988c.666 0 .96-.314 1.334-.685l3.204-3.202 6.663 5.059c1.229.695 2.111.338 2.417-1.17L28.9 4.3c.448-1.845-.685-2.68-1.857-2.136Z"/></symbol>
<symbol id="Discord" viewBox="0 0 29 29"><path d="M4.326 25.612h17.23l-.823-2.664 1.968 1.689 1.804 1.616L27.792 29V2.99C27.709 1.375 26.317 0 24.592 0L4.332.004c-1.724 0-3.124 1.376-3.124 2.993V22.62c0 1.705 1.397 2.992 3.118 2.992ZM17.07 6.867l-.04.014.015-.014h.025ZM7.851 8.4c2.215-1.612 4.267-1.534 4.267-1.534l.166.163c-2.71.646-3.94 1.857-3.94 1.857s.33-.16.903-.406c3.65-1.435 7.637-1.332 11.327.486 0 0-1.231-1.132-3.775-1.857l.225-.221c.352 0 2.213.066 4.204 1.522 0 0 2.228 3.806 2.228 8.482-.073-.089-1.382 2.014-4.75 2.086 0 0-.57-.645-.976-1.208 1.97-.566 2.707-1.697 2.707-1.697-.647.407-1.236.65-1.715.89-.736.325-1.473.484-2.209.647-3.485.566-5.441-.38-7.29-1.13l-.632-.322s.736 1.13 2.627 1.696c-.496.567-.988 1.211-.988 1.211-3.367-.08-4.594-2.182-4.594-2.182C5.636 12.199 7.85 8.4 7.85 8.4Z"/><path d="M17.289 15.432c.86 0 1.559-.725 1.559-1.62 0-.888-.696-1.613-1.559-1.613v.004c-.856 0-1.556.723-1.559 1.617 0 .887.7 1.612 1.559 1.612ZM11.709 15.432c.859 0 1.559-.725 1.559-1.62 0-.888-.695-1.613-1.554-1.613l-.005.004c-.86 0-1.559.723-1.559 1.617 0 .887.7 1.612 1.559 1.612Z"/></symbol>
<symbol id="Twitter" viewBox="0 0 22 22" version="1.1" xmlns="http://www.w3.org/2000/svg" xmlns:xlink="http://www.w3.org/1999/xlink">
        <path d="M12.77925,9.526 L19.740875,1.375 L18.090875,1.375 L12.04775,8.452125 L7.21875,1.375 L1.65,1.375 L8.95125,12.078 L1.65,20.625 L3.3,20.625 L9.68275,13.1505 L14.782625,20.625 L20.351375,20.625 L12.77925,9.526 Z M10.520125,12.1715 L9.780375,11.105875 L3.894,2.62625 L6.428125,2.62625 L11.177375,9.469625 L11.917125,10.53525 L18.09225,19.4315 L15.558125,19.4315 L10.520125,12.1715 Z"></path>
</symbol>
<symbol id="Medium" viewBox="0 0 29 29"><path d="M7.807 6.59c4.312 0 7.807 3.527 7.807 7.877s-3.495 7.876-7.807 7.876C3.496 22.343 0 18.817 0 14.467c0-4.35 3.495-7.876 7.807-7.876Zm12.468.462c2.156 0 3.904 3.32 3.904 7.415 0 4.094-1.748 7.415-3.904 7.415-2.156 0-3.903-3.32-3.903-7.415 0-4.094 1.747-7.415 3.903-7.415Zm6.034.773c.758 0 1.373 2.974 1.373 6.642s-.615 6.643-1.373 6.643-1.373-2.974-1.373-6.643c0-3.668.615-6.642 1.373-6.642Z"/></symbol>
<symbol id="Youtube" viewBox="0 0 29 29"><path d="m28.358 7.164.037.237a3.676 3.676 0 0 0-2.5-2.552l-.024-.006c-2.261-.614-11.359-.614-11.359-.614s-9.074-.012-11.358.614A3.678 3.678 0 0 0 .637 7.376L.63 7.4c-.845 4.412-.85 9.713.037 14.436l-.037-.24A3.676 3.676 0 0 0 3.13 24.15l.025.006c2.258.615 11.358.615 11.358.615s9.074 0 11.359-.615a3.678 3.678 0 0 0 2.518-2.533l.006-.025c.384-2.052.604-4.413.604-6.825L29 14.506l.001-.278c0-2.413-.22-4.774-.642-7.064ZM11.61 18.912v-8.813l7.571 4.413-7.571 4.4Z"/></symbol>
<symbol id="LinkedIn" viewBox="0 0 29 29"><path d="M21.571 20.835v-5.069c0-2.716-1.45-3.98-3.383-3.98-1.56 0-2.259.858-2.648 1.46v-1.252H12.6c.04.83 0 8.841 0 8.841h2.94v-4.937c0-.264.019-.528.097-.717.212-.528.695-1.074 1.507-1.074 1.064 0 1.489.81 1.489 1.998v4.73h2.938ZM9.505 10.787c1.024 0 1.663-.68 1.663-1.528-.02-.867-.639-1.527-1.644-1.527s-1.662.66-1.662 1.527c0 .849.638 1.528 1.624 1.528h.019Zm4.778 16.915c-7.17 0-12.985-5.814-12.985-12.986 0-7.171 5.814-12.985 12.986-12.985 7.17 0 12.985 5.814 12.985 12.985 0 7.172-5.814 12.986-12.985 12.986Zm-3.309-6.867v-8.841H8.036v8.841h2.938Z"/></symbol>
<symbol id="Facebook" viewBox="0 0 29 29"><path d="M27 14.576C27 7.63 21.405 2 14.5 2S2 7.629 2 14.576C2 20.853 6.571 26.056 12.547 27v-8.788H9.37v-3.636h3.176v-2.77c0-3.152 1.865-4.893 4.721-4.893 1.368 0 2.799.245 2.799.245v3.093H18.49c-1.552 0-2.037.97-2.037 1.965v2.36h3.467l-.555 3.636h-2.912V27C22.43 26.056 27 20.853 27 14.576Z"/></symbol>
<symbol id="Chain-link" viewBox="0 0 24 20" version="1.1" xmlns="http://www.w3.org/2000/svg" xmlns:xlink="http://www.w3.org/1999/xlink">
<path d="M21.742 10.5388C23.8608 8.42006 23.8608 4.98881 21.742 2.87006C19.867 0.995057 16.912 0.751307 14.7558 2.29256L14.6958 2.33381C14.1558 2.72006 14.032 3.47006 14.4183 4.00631C14.8045 4.54256 15.5545 4.67006 16.0908 4.28381L16.1508 4.24256C17.3545 3.38381 19.0008 3.51881 20.0433 4.56506C21.2245 5.74631 21.2245 7.65881 20.0433 8.84006L15.8358 13.0551C14.6545 14.2363 12.742 14.2363 11.5608 13.0551C10.5145 12.0088 10.3795 10.3626 11.2383 9.16256L11.2795 9.10256C11.6658 8.56256 11.5383 7.81256 11.002 7.43006C10.4658 7.04756 9.71203 7.17131 9.32953 7.70756L9.28828 7.76756C7.74328 9.92006 7.98703 12.8751 9.86203 14.7501C11.9808 16.8688 15.412 16.8688 17.5308 14.7501L21.742 10.5388ZM2.25703 9.66131C0.138281 11.7801 0.138281 15.2113 2.25703 17.3301C4.13203 19.2051 7.08703 19.4488 9.24328 17.9076L9.30328 17.8663C9.84328 17.4801 9.96703 16.7301 9.58078 16.1938C9.19453 15.6576 8.44453 15.5301 7.90828 15.9163L7.84828 15.9576C6.64453 16.8163 4.99828 16.6813 3.95578 15.6351C2.77453 14.4501 2.77453 12.5376 3.95578 11.3563L8.16328 7.14506C9.34453 5.96381 11.257 5.96381 12.4383 7.14506C13.4845 8.19131 13.6195 9.83756 12.7608 11.0413L12.7195 11.1013C12.3333 11.6413 12.4608 12.3913 12.997 12.7738C13.5333 13.1563 14.287 13.0326 14.6695 12.4963L14.7108 12.4363C16.2558 10.2801 16.012 7.32506 14.137 5.45006C12.0183 3.33131 8.58703 3.33131 6.46828 5.45006L2.25703 9.66131Z"/>
</symbol>
<symbol id="profile-copy" viewBox="0 0 13 13" version="1.1" xmlns="http://www.w3.org/2000/svg" xmlns:xlink="http://www.w3.org/1999/xlink">
<path d="M0 4.33876C0 1.94253 1.94406 0 4.34218 0H9.63801C9.95081 0 10.2044 0.253374 10.2044 0.565926C10.2044 0.878478 9.95081 1.13185 9.63801 1.13185H4.34218C2.56965 1.13185 1.13274 2.56764 1.13274 4.33876V9.70138C1.13274 10.0139 0.879169 10.2673 0.566371 10.2673C0.253573 10.2673 0 10.0139 0 9.70138V4.33876Z"/>
<path d="M11.4426 2.67363C8.99518 2.40031 6.48565 2.40031 4.03821 2.67363C3.34098 2.75149 2.7807 3.29976 2.69853 4.00183C2.40825 6.48171 2.40825 8.98693 2.69853 11.4668C2.7807 12.1689 3.34098 12.7171 4.03821 12.795C6.48565 13.0683 8.99518 13.0683 11.4426 12.795C12.1398 12.7171 12.7001 12.1689 12.7823 11.4668C13.0726 8.98693 13.0726 6.48171 12.7823 4.00183C12.7001 3.29976 12.1398 2.75149 11.4426 2.67363Z"/>
</symbol>
<symbol id="logout" viewBox="0 0 20 20" version="1.1" xmlns="http://www.w3.org/2000/svg" xmlns:xlink="http://www.w3.org/1999/xlink">
<path d="M9.06154 17.129C9.06154 16.648 9.45415 16.2581 9.93846 16.2581H16.9538C17.1153 16.2581 17.2462 16.1281 17.2462 15.9677L17.2462 2.03226C17.2462 1.87192 17.1153 1.74194 16.9538 1.74194L9.93846 1.74194C9.45415 1.74194 9.06154 1.35199 9.06154 0.870969C9.06154 0.389947 9.45415 0 9.93846 0H16.9538C18.0839 0 19 0.909874 19 2.03226V15.9677C19 17.0901 18.0839 18 16.9538 18H9.93846C9.45415 18 9.06154 17.6101 9.06154 17.129Z"/>
<path d="M14.1613 10.2951C14.1613 10.9365 13.6378 11.4564 12.992 11.4564H7.31426C7.28745 11.8691 7.25389 12.2816 7.21358 12.6935L7.1789 13.0479C7.1225 13.6242 6.50637 13.9693 5.98066 13.7191C3.8434 12.7018 1.90858 11.3097 0.269253 9.60968L0.234226 9.57336C-0.0780752 9.2495 -0.0780751 8.73878 0.234226 8.41492L0.269254 8.3786C1.90858 6.67862 3.8434 5.2865 5.98066 4.26919C6.50637 4.01896 7.1225 4.36408 7.1789 4.94036L7.21358 5.29479C7.25389 5.70673 7.28745 6.11916 7.31427 6.53192L12.992 6.53192C13.6378 6.53192 14.1613 7.05184 14.1613 7.69321V10.2951Z"/>
</symbol>
<symbol id="wallet" viewBox="0 0 24 25" version="1.1" xmlns="http://www.w3.org/2000/svg" xmlns:xlink="http://www.w3.org/1999/xlink">
<path d="M3 2C1.34531 2 0 3.34531 0 5V20C0 21.6547 1.34531 23 3 23H21C22.6547 23 24 21.6547 24 20V9.5C24 7.84531 22.6547 6.5 21 6.5H3.75C3.3375 6.5 3 6.1625 3 5.75C3 5.3375 3.3375 5 3.75 5H21C21.8297 5 22.5 4.32969 22.5 3.5C22.5 2.67031 21.8297 2 21 2H3ZM19.5 16.25C18.6703 16.25 18 15.5797 18 14.75C18 13.9203 18.6703 13.25 19.5 13.25C20.3297 13.25 21 13.9203 21 14.75C21 15.5797 20.3297 16.25 19.5 16.25Z"/>
</symbol>
<symbol id="user" viewBox="0 0 24 24"><path d="M12 12a6 6 0 1 0 0-12 6 6 0 1 0 0 12Zm-2.142 2.25A8.356 8.356 0 0 0 1.5 22.608c0 .769.623 1.392 1.392 1.392h18.216c.769 0 1.392-.623 1.392-1.392a8.356 8.356 0 0 0-8.358-8.358H9.858Z"/></symbol>
<symbol id="Instagram" viewBox="0 0 21 22"><g clip-path="url(#clip0_1037_2516)">
<path d="M15.88 21.1799H4.34C1.95 21.1799 0 19.2799 0 16.9399V5.05995C0 2.71995 1.95 0.819946 4.34 0.819946H15.89C18.28 0.819946 20.23 2.71995 20.23 5.05995V16.9499C20.23 19.2899 18.28 21.1899 15.89 21.1899M4.34 2.56995C2.91 2.56995 1.75 3.68995 1.75 5.05995V16.9499C1.75 18.3199 2.91 19.4399 4.34 19.4399H15.89C17.32 19.4399 18.48 18.3199 18.48 16.9499V5.05995C18.48 3.68995 17.32 2.56995 15.89 2.56995H4.34Z"/>
<path d="M10.1103 16.29C7.20031 16.29 4.82031 13.92 4.82031 11.01C4.82031 8.09998 7.19031 5.72998 10.1103 5.72998C13.0303 5.72998 15.4003 8.09998 15.4003 11.01C15.4003 13.92 13.0303 16.29 10.1103 16.29ZM10.1103 7.46998C8.16031 7.46998 6.57031 9.05998 6.57031 11.01C6.57031 12.96 8.16031 14.55 10.1103 14.55C12.0603 14.55 13.6503 12.96 13.6503 11.01C13.6503 9.05998 12.0603 7.46998 10.1103 7.46998Z" />
<path d="M17.02 5.44996C17.02 6.12996 16.47 6.68996 15.78 6.68996C15.09 6.68996 14.54 6.13996 14.54 5.44996C14.54 4.75996 15.09 4.20996 15.78 4.20996C16.47 4.20996 17.02 4.75996 17.02 5.44996Z" />
</g>
<defs>
<clipPath id="clip0_1037_2516">
<rect width="20.22" height="20.36" transform="translate(0 0.819946)"/>
</clipPath>
</defs></symbol>
<symbol id="close" viewBox="0 0 16 16">
<path fill-rule="evenodd" clip-rule="evenodd" d="M3.46967 3.46967C3.76256 3.17678 4.23744 3.17678 4.53033 3.46967L8 6.93934L11.4697 3.46967C11.7626 3.17678 12.2374 3.17678 12.5303 3.46967C12.8232 3.76256 12.8232 4.23744 12.5303 4.53033L9.06066 8L12.5303 11.4697C12.8232 11.7626 12.8232 12.2374 12.5303 12.5303C12.2374 12.8232 11.7626 12.8232 11.4697 12.5303L8 9.06066L4.53033 12.5303C4.23744 12.8232 3.76256 12.8232 3.46967 12.5303C3.17678 12.2374 3.17678 11.7626 3.46967 11.4697L6.93934 8L3.46967 4.53033C3.17678 4.23744 3.17678 3.76256 3.46967 3.46967Z" />
</symbol>
</defs>
</svg>
