<svg width="88" height="88" viewBox="0 0 88 88" fill="none" xmlns="http://www.w3.org/2000/svg">
<path d="M41.6319 2.04475C42.833 0.500471 45.167 0.500472 46.3681 2.04475L51.5738 8.73804C52.3985 9.79835 53.8275 10.1812 55.0718 9.67532L62.9268 6.48165C64.7391 5.7448 66.7604 6.91181 67.0284 8.84972L68.1901 17.2492C68.3742 18.5798 69.4202 19.6259 70.7508 19.8099L79.1503 20.9716C81.0882 21.2396 82.2552 23.2609 81.5184 25.0732L78.3247 32.9282C77.8187 34.1725 78.2016 35.6015 79.262 36.4262L85.9553 41.6319C87.4995 42.833 87.4995 45.167 85.9553 46.3681L79.262 51.5738C78.2016 52.3985 77.8187 53.8275 78.3247 55.0718L81.5184 62.9268C82.2552 64.7391 81.0882 66.7604 79.1503 67.0284L70.7508 68.1901C69.4202 68.3742 68.3742 69.4202 68.1901 70.7508L67.0284 79.1503C66.7604 81.0882 64.7391 82.2552 62.9268 81.5184L55.0718 78.3247C53.8275 77.8187 52.3985 78.2016 51.5738 79.262L46.3681 85.9553C45.167 87.4995 42.833 87.4995 41.6319 85.9553L36.4262 79.262C35.6015 78.2016 34.1725 77.8187 32.9282 78.3247L25.0732 81.5184C23.2609 82.2552 21.2396 81.0882 20.9716 79.1503L19.8099 70.7508C19.6259 69.4202 18.5798 68.3742 17.2492 68.1901L8.84972 67.0284C6.9118 66.7604 5.7448 64.7391 6.48165 62.9268L9.67532 55.0718C10.1812 53.8275 9.79835 52.3985 8.73804 51.5738L2.04475 46.3681C0.500471 45.167 0.500472 42.833 2.04475 41.6319L8.73804 36.4262C9.79835 35.6015 10.1812 34.1725 9.67532 32.9282L6.48165 25.0732C5.7448 23.2609 6.91181 21.2396 8.84973 20.9716L17.2492 19.8099C18.5798 19.6259 19.6259 18.5798 19.8099 17.2492L20.9716 8.84972C21.2396 6.91181 23.2609 5.7448 25.0732 6.48165L32.9282 9.67532C34.1725 10.1812 35.6015 9.79835 36.4262 8.73804L41.6319 2.04475Z" fill="url(#paint0_linear_1803_911)"/>
<defs>
<linearGradient id="paint0_linear_1803_911" x1="16.5781" y1="-0.999999" x2="71.4219" y2="80.5625" gradientUnits="userSpaceOnUse">
<stop offset="0.0171234" stop-color="#FF9C2F"/>
<stop offset="1" stop-color="#FD8603"/>
</linearGradient>
</defs>
</svg>
