<svg width="40" height="202" viewBox="0 0 40 202" fill="none" xmlns="http://www.w3.org/2000/svg">
<path d="M0.750232 201.636L3.37944 190.393L11.8022 198.291L0.750232 201.636ZM7.78333 192.172C9.42974 190.133 10.9964 188.067 12.4859 185.976L14.1147 187.137C12.602 189.26 11.0111 191.358 9.33935 193.428L7.78333 192.172ZM16.8054 179.507C18.1928 177.285 19.5 175.041 20.7299 172.776L22.4874 173.731C21.2384 176.03 19.9108 178.31 18.5017 180.566L16.8054 179.507ZM24.2402 165.82C25.3469 163.452 26.3751 161.066 27.3279 158.667L29.1867 159.405C28.2195 161.841 27.1757 164.262 26.052 166.666L24.2402 165.82ZM29.9914 151.345C30.8127 148.868 31.5587 146.379 32.2329 143.882L34.1637 144.404C33.48 146.936 32.7231 149.46 31.8898 151.975L29.9914 151.345ZM34.0584 136.305C34.6009 133.752 35.0724 131.195 35.4766 128.639L37.4521 128.951C37.0425 131.541 36.5647 134.133 36.0148 136.721L34.0584 136.305ZM36.4982 120.908C36.7752 118.31 36.9862 115.717 37.135 113.133L39.1317 113.248C38.9811 115.864 38.7674 118.489 38.4869 121.12L36.4982 120.908ZM37.3997 105.334C37.4274 102.718 37.3943 100.115 37.3044 97.5303L39.3032 97.4608C39.3941 100.075 39.4276 102.708 39.3996 105.356L37.3997 105.334ZM36.8606 89.7366C36.6541 87.1211 36.3919 84.5301 36.0784 81.9685L38.0636 81.7256C38.3805 84.3151 38.6456 86.9346 38.8544 89.5792L36.8606 89.7366ZM34.9664 74.2405C34.5366 71.6434 34.0562 69.0837 33.5305 66.5671L35.4882 66.1581C36.0196 68.7017 36.5051 71.2889 36.9395 73.9139L34.9664 74.2405ZM31.7743 58.9642C31.1252 56.4026 30.4312 53.8958 29.6981 51.4503L31.6139 50.876C32.3552 53.349 33.0569 55.8835 33.713 58.4729L31.7743 58.9642ZM27.2869 44.015C26.4047 41.4921 25.4835 39.0509 24.5312 36.6998L26.3849 35.9489C27.3496 38.3305 28.2821 40.802 29.1748 43.3548L27.2869 44.015ZM21.416 29.557C20.2692 27.1138 19.0932 24.7996 17.8997 22.6267L19.6526 21.6638C20.8677 23.8758 22.0627 26.2279 23.2264 28.7072L21.416 29.557ZM13.8889 15.9502C12.3494 13.6189 10.805 11.5396 9.27963 9.73532L10.807 8.4441C12.3905 10.3173 13.9816 12.4613 15.5579 14.8481L13.8889 15.9502ZM3.8358 4.41043C2.75545 3.58762 1.7149 2.94512 0.724267 2.48336L1.56923 0.670621C2.71431 1.20437 3.87707 1.92786 5.0476 2.81935L3.8358 4.41043Z" fill="#FFC83C"/>
</svg>
