<svg width="202" height="44" viewBox="0 0 202 44" fill="none" xmlns="http://www.w3.org/2000/svg">
<path d="M201.366 35.72L190.033 33.5103L197.613 24.8L201.366 35.72ZM191.647 29.0434C189.548 27.4739 187.425 25.9851 185.281 24.5743L186.38 22.9034C188.558 24.3362 190.714 25.8481 192.845 27.4418L191.647 29.0434ZM178.655 20.498C176.384 19.1941 174.092 17.9712 171.784 16.8263L172.672 15.0345C175.017 16.1972 177.344 17.4392 179.651 18.7636L178.655 20.498ZM164.702 13.5768C162.295 12.5588 159.873 11.62 157.439 10.7569L158.108 8.87197C160.578 9.748 163.037 10.7011 165.481 11.7348L164.702 13.5768ZM150.024 8.36727C147.517 7.63857 145.002 6.9855 142.483 6.40449L142.932 4.45563C145.487 5.0449 148.039 5.70739 150.582 6.44678L150.024 8.36727ZM134.843 4.86171C132.271 4.41449 129.699 4.03827 127.129 3.7293L127.368 1.74361C129.972 2.05666 132.579 2.43793 135.185 2.89129L134.843 4.86171ZM119.365 2.99566C116.759 2.81533 114.16 2.70078 111.572 2.64803L111.613 0.648444C114.233 0.701841 116.864 0.81781 119.503 1.00043L119.365 2.99566ZM103.769 2.67324C101.153 2.74274 98.5536 2.87254 95.9742 3.05838L95.8305 1.06355C98.4393 0.875583 101.069 0.744265 103.716 0.673943L103.769 2.67324ZM88.2024 3.7914C85.5964 4.09492 83.0169 4.45319 80.4687 4.86157L80.1522 2.88677C82.7282 2.47394 85.336 2.11173 87.971 1.80483L88.2024 3.7914ZM72.7873 6.25997C70.208 6.78595 67.6679 7.36101 65.1726 7.97992L64.6911 6.03873C67.2133 5.41317 69.7806 4.83193 72.3877 4.3003L72.7873 6.25997ZM57.6401 10.0173C55.1045 10.7611 52.6251 11.5477 50.2085 12.3712L49.5635 10.478C52.0072 9.64537 54.5139 8.85 57.0772 8.09818L57.6401 10.0173ZM42.868 15.057C40.3796 16.0322 37.9742 17.0434 35.6602 18.0825L34.841 16.2579C37.185 15.2054 39.6202 14.1817 42.1381 13.1949L42.868 15.057ZM28.638 21.4609C26.2391 22.6976 23.9702 23.9588 21.8431 25.2322L20.8158 23.5162C22.9811 22.2199 25.2872 20.9383 27.7215 19.6832L28.638 21.4609ZM15.3203 29.4882C13.0478 31.1133 11.0273 32.7338 9.28087 34.3252L7.93381 32.8469C9.74684 31.1948 11.8303 29.5252 14.1569 27.8613L15.3203 29.4882ZM4.16188 39.9631C3.37977 41.0732 2.77637 42.1369 2.35173 43.144L0.508851 42.367C0.999697 41.2029 1.67949 40.014 2.52688 38.8112L4.16188 39.9631Z" fill="#FFC83C"/>
</svg>
