<svg width="21" height="24" viewBox="0 0 21 24" fill="none" xmlns="http://www.w3.org/2000/svg">
<path d="M4.2588 3.6761L10.6276 0L16.9964 3.6761L14.6549 5.03415L10.6276 2.7161L6.60027 5.03415L4.2588 3.6761ZM16.9964 8.31219L14.6549 6.95415L10.6276 9.2722L6.60027 6.95415L4.2588 8.31219V11.0283L8.28611 13.3463V17.9824L10.6276 19.3405L12.9691 17.9824V13.3463L16.9964 11.0283V8.31219ZM16.9964 15.6644V12.9483L14.6549 14.3063V17.0224L16.9964 15.6644ZM18.6588 16.6244L14.6315 18.9424V21.6585L21.0003 17.9824V10.6302L18.6588 11.9883V16.6244ZM16.3174 5.99415L18.6588 7.35219V10.0683L21.0003 8.71024V5.99415L18.6588 4.6361L16.3174 5.99415ZM8.28611 19.9259V22.642L10.6276 24L12.9691 22.642V19.9259L10.6276 21.2839L8.28611 19.9259ZM4.2588 15.6644L6.60027 17.0224V14.3063L4.2588 12.9483V15.6644ZM8.28611 5.99415L10.6276 7.35219L12.9691 5.99415L10.6276 4.6361L8.28611 5.99415ZM2.59634 7.35219L4.93781 5.99415L2.59634 4.6361L0.254883 5.99415V8.71024L2.59634 10.0683V7.35219ZM2.59634 11.9883L0.254883 10.6302V17.9824L6.62365 21.6585V18.9424L2.59634 16.6244V11.9883Z" fill="#F0B90B"/>
</svg>
