<svg width="22" height="23" viewBox="0 0 22 23" fill="none" xmlns="http://www.w3.org/2000/svg">
<g clip-path="url(#clip0_1724_71072)">
<path d="M11 22.5C17.0751 22.5 22 17.5751 22 11.5C22 5.42487 17.0751 0.5 11 0.5C4.92487 0.5 0 5.42487 0 11.5C0 17.5751 4.92487 22.5 11 22.5Z" fill="#26A17B"/>
<path fill-rule="evenodd" clip-rule="evenodd" d="M12.3212 12.4503V12.4489C12.2456 12.4544 11.8557 12.4778 10.9861 12.4778C10.2917 12.4778 9.80287 12.4571 9.63099 12.4489V12.4509C6.95799 12.3334 4.96287 11.8679 4.96287 11.3111C4.96287 10.7549 6.95799 10.2894 9.63099 10.1698V11.9876C9.80562 11.9999 10.3061 12.0295 10.9977 12.0295C11.8276 12.0295 12.2435 11.9951 12.3212 11.9883V10.1712C14.9887 10.2901 16.979 10.7556 16.979 11.3111C16.979 11.8679 14.9887 12.332 12.3212 12.4503ZM12.3212 9.98213V8.3555H16.0433V5.875H5.90887V8.3555H9.63099V9.98144C6.60599 10.1203 4.33105 10.7198 4.33105 11.4376C4.33105 12.1553 6.60599 12.7541 9.63099 12.8937V18.1063H12.3212V12.8923C15.3414 12.7534 17.6108 12.1546 17.6108 11.4376C17.6108 10.7205 15.3414 10.1217 12.3212 9.98213Z" fill="white"/>
</g>
<defs>
<clipPath id="clip0_1724_71072">
<rect width="22" height="22" fill="white" transform="translate(0 0.5)"/>
</clipPath>
</defs>
</svg>
